# xmcd
#
# Track frame offsets: 
#        150
#        17278
#        30834
#        45220
#        61776
#        77412
#        91635
#        110363
#        129314
#        145771
#        160480
#        179708
#
# Disc length: 2620 seconds
#
# Revision: 1
# Processed by: cddbd v1.5.2PL0 Copyright (c) Steve Scherf et al.
# Submitted via: ExactAudioCopyFreeDBPlugin 1.0
#
DISCID=7d0a3a0c
DTITLE=The Shires - My Universe
DYEAR=2016
DGENRE=Country
TTITLE0=My Universe
TTITLE1=Beats To Your Rhythm
TTITLE2=Not Even Drunk Right Now
TTITLE3=Naked
TTITLE4=Drive
TTITLE5=Daddy's Little Girl
TTITLE6=Everything You Never Gave
TTITLE7=Save Me
TTITLE8=Common Language
TTITLE9=A Thousand Hallelujahs
TTITLE10=Other People's Things
TTITLE11=Desperate
EXTD=
EXTT0=
EXTT1=
EXTT2=
EXTT3=
EXTT4=
EXTT5=
EXTT6=
EXTT7=
EXTT8=
EXTT9=
EXTT10=
EXTT11=
PLAYORDER=
